PathFileType	4	(X/Y/Z)	C:/Users/beibeiliu/ov580/test_trc/User3\sequence.30_training_dense_left.trc
DataRate	CameraRate	NumFrames	NumMarkers	Units	OrigDataRate	OrigDataStartFrame	OrigNumFrames
120	120	13	19	mm	120	50	99
Frame#	Time	ThumbCMC			ThumbMCP			ThumbIP			ThumbTip			IndexMCP			IndexPIP			IndexTip			MiddleMCP			MiddlePIP			MiddleTip			RingMCP			RingPIP			RingTip			PinkyMCP			PinkyPIP			PinkyTip			BackHand1			BackHand2			BackHand3	
		X0	Y0	Z0	X1	Y1	Z1	X2	Y2	Z2	X3	Y3	Z3	X4	Y4	Z4	X5	Y5	Z5	X6	Y6	Z6	X7	Y7	Z7	X8	Y8	Z8	X9	Y9	Z9	X10	Y10	Z10	X11	Y11	Z11	X12	Y12	Z12	X13	Y13	Z13	X14	Y14	Z14	X15	Y15	Z15	X16	Y16	Z16	X17	Y17	Z17	X18	Y18	Z18	
49	0.408333	-151.639	-18.9262	43.3307	-140.517	-24.4349	14.1275	-135.256	-27.6864	-16.8697	-141.844	-40.3242	-40.2738	-174.063	-5.33019	-24.4098	-150.495	-15.074	-42.1112	-127.822	-31.0063	-41.5838	-189.347	-19.0476	-30.0814	-168.016	-28.5139	-52.0184	-137.253	-50.4443	-58.042	-198.691	-38.7097	-27.2723	-176.972	-48.1604	-48.2692	-150.783	-64.5515	-47.137	-204.192	-54.7502	-14.0517	-187.348	-59.4748	-36.9842	-160.669	-73.3524	-41.9031	-214.928	-39.2113	29.8527	-207.158	-47.231	58.4553	-193.703	-17.5641	48.7297	
50	0.416667	-150.947	-21.57	45.1156	-139.079	-24.1186	9.87791	-135.39	-28.6789	-18.9496	-139.454	-38.1151	-44.1078	-171.35	0.242427	-21.6252	-151.681	-15.2775	-45.3052	-128.351	-30.3282	-45.3691	-188.09	-15.287	-31.6779	-167.814	-25.5143	-55.2547	-142.035	-46.3436	-61.9884	-199.225	-31.1184	-27.9595	-180.375	-44.9691	-52.3622	-152.785	-61.7436	-53.4817	-205.92	-48.9873	-22.4251	-193.723	-56.4655	-42.39	-169.522	-64.7409	-49.7355	-214.797	-33.7277	28.9662	-212.643	-43.3781	54.7038	-193.399	-13.6632	46.0671	
51	0.425	-146.532	-20.4014	40.2358	-131.78	-23.4194	5.88636	-133.912	-28.0167	-24.2234	-141.257	-35.2114	-51.2257	-163.961	6.15866	-27.6883	-144.857	-8.39886	-47.7324	-126.24	-33.0076	-50.7187	-181.901	-4.05874	-35.17	-163.646	-12.7981	-57.6164	-139.062	-44.2946	-68.8676	-194.019	-17.1452	-33.3972	-178.216	-29.7753	-57.5709	-160.359	-52.1776	-63.5179	-208.74	-36.3342	-26.0157	-192.357	-41.5184	-49.5655	-171.702	-52.508	-57.1629	-210.538	-19.9641	22.5789	-211.357	-34.6989	49.5221	-186.211	-3.49783	42.0203	
52	0.433333	-146.073	-14.6204	29.4747	-131.757	-19.2745	-0.780276	-131.993	-19.1961	-38.9347	-141.294	-25.8452	-59.0268	-157.102	17.1445	-33.0866	-140.755	1.03027	-54.6486	-127.103	-27.1236	-58.2569	-174.794	10.7516	-45.6272	-157.972	0.755726	-65.4444	-136.742	-28.6026	-76.7192	-193.134	-2.66163	-39.6559	-177.085	-12.1453	-64.7701	-161.125	-37.0323	-75.4926	-205.648	-16.4345	-35.0804	-192.051	-22.7522	-58.203	-175.86	-38.2646	-73.979	-204.518	-3.19785	14.234	-209.558	-19.2112	44.2377	-178.037	8.22889	33.913	
53	0.441667	-141.209	-9.02808	20.0003	-130.942	-10.5111	-18.0546	-134.075	-12.1225	-50.6587	-143.955	-15.933	-68.8278	-152.778	29.1853	-41.6799	-138.352	10.1125	-65.2448	-127.803	-15.6825	-67.1514	-167.811	27.1479	-52.7322	-156.684	11.7958	-77.917	-143.421	-17.7341	-89.8679	-186.158	17.3978	-49.3668	-179.831	4.2752	-73.4919	-165.597	-17.1233	-86.7176	-203.423	4.33032	-42.4456	-193.487	-2.89751	-66.3216	-182.218	-17.3568	-83.3249	-204.553	12.1363	10.0639	-204.887	-1.79307	34.136	-170.797	19.835	25.326	
54	0.45	-144.269	-4.06497	3.03146	-138.282	-11.3563	-29.3328	-143.781	-12.8099	-62.595	-152.52	-15.9121	-81.2675	-158.525	31.8309	-55.2281	-146.585	8.17484	-79.6591	-137.651	-17.2345	-73.7173	-178.435	30.5169	-63.0377	-165.274	13.6378	-89.4028	-154.037	-16.9366	-102.099	-196.518	21.5576	-58.3461	-190.119	6.50001	-85.6879	-176.867	-15.8057	-95.723	-209.57	11.2461	-53.7991	-203.161	2.25051	-75.3811	-191.229	-15.1352	-90.0398	-205.06	21.8067	-0.619085	-206.367	3.93556	25.4191	-170.261	22.4583	14.2625	
55	0.458333	-153.523	-12.7858	-6.91014	-148.572	-23.2204	-42.2539	-155.347	-27.6506	-70.0542	-160.975	-33.2193	-94.5267	-169.984	21.8788	-66.1592	-162.227	-4.2883	-88.2733	-153.357	-29.7834	-71.3466	-186.329	20.8519	-73.6057	-178.666	0.789001	-100.075	-174.8	-30.9406	-106.997	-203.897	15.2389	-65.0333	-202.386	-6.05747	-94.2601	-193.237	-31.5199	-99.1772	-221.6	4.49756	-58.6137	-215.476	-5.76301	-79.6468	-206.67	-33.2071	-93.5011	-206.518	17.5831	-8.76146	-206.366	6.41507	17.2198	-175.41	18.7972	6.14901	
56	0.466667	-154.164	-23.8022	-12.6634	-150.386	-40.2208	-43.304	-153.939	-49.6331	-72.3912	-164.099	-58.0605	-91.734	-171.729	0.432845	-77.6642	-166.432	-28.7162	-91.5105	-161.311	-47.1047	-66.6737	-192.204	-0.588167	-82.5675	-189.502	-27.5461	-102.555	-186.329	-63.1719	-97.4236	-210.333	-4.53526	-69.868	-210.679	-30.6339	-93.652	-199.514	-59.2344	-90.3073	-225.303	-12.0669	-57.1045	-223.694	-27.2182	-79.3156	-215.685	-57.2683	-84.3944	-212.811	8.89143	-18.1183	-210.047	0.74732	15.8074	-174.82	8.36269	-6.90153	
57	0.475	-152.493	-33.754	-6.37967	-148.176	-53.0013	-34.4314	-154.048	-67.6096	-63.5676	-162.863	-79.0795	-80.312	-169.342	-25.1333	-79.979	-166.963	-55.2935	-85.371	-162.414	-64.691	-54.4891	-192.697	-25.4498	-82.5133	-188.507	-52.3849	-96.4305	-181.985	-89.0617	-77.1772	-209.011	-30.2554	-73.8074	-206.46	-57.3863	-87.7833	-197.372	-82.3278	-75.1888	-226.295	-35.6464	-56.3365	-223.352	-60.2156	-73.2595	-211.867	-84.4168	-68.3424	-211.042	-7.59067	-18.1199	-204.21	-6.25475	11.3709	-175.694	-1.47869	-7.83382	
58	0.483333	-145.31	-34.7288	-3.86341	-141.641	-59.8612	-27.7144	-139.762	-78.9282	-49.8405	-148.288	-96.5396	-68.5219	-166.571	-39.8177	-75.1942	-157.11	-70.9673	-78.3701	-153.036	-75.9202	-42.5164	-188.098	-46.5736	-76.5836	-175.433	-80.3231	-84.2845	-164.172	-104.86	-58.3516	-205.001	-52.8618	-66.1425	-195.837	-83.984	-74.3122	-181.174	-101.919	-57.2432	-220.565	-61.251	-51.5059	-209.729	-84.3219	-60.8575	-190.105	-103.337	-45.3034	-207.603	-20.0239	-22.5446	-207.096	-16.0616	11.411	-178.724	-7.84803	-11.848	
59	0.491667	-142.957	-29.9651	-1.41153	-132.47	-58.9492	-20.6383	-125.229	-81.0022	-38.977	-131.167	-103	-52.7115	-155.608	-52.3612	-73.8851	-135.444	-76.6617	-67.0326	-134.051	-78.4337	-38.1341	-176.281	-65.812	-73.4481	-156.203	-89.308	-75.713	-140.983	-109.068	-46.7465	-190.307	-75.3874	-61.6614	-170.418	-99.7786	-62.1705	-152.005	-112.491	-38.1101	-204.325	-81.7653	-42.4709	-183.191	-105.313	-45.1739	-164.702	-107.766	-29.2517	-210.597	-36.1956	-17.8507	-210.527	-26.2932	9.28547	-179.463	-11.3048	-14.7707	
60	0.5	-145.624	-18.0407	-2.27201	-124.651	-44.7965	-15.7944	-108.763	-71.1258	-32.414	-113.729	-93.5592	-37.0896	-149.56	-51.7321	-66.2163	-120.78	-69.9802	-61.6174	-112.347	-65.3395	-26.983	-157.411	-70.4858	-66.7395	-132.876	-88.2112	-65.1965	-101.251	-95.1624	-40.167	-168.585	-84.7104	-53.3164	-142.694	-102.353	-50.1253	-120.116	-102.886	-31.4152	-177.545	-93.3878	-35.2307	-153.352	-107.751	-32.5939	-131.125	-103.907	-16.4686	-201.895	-50.6222	-21.9087	-207.628	-36.0026	9.48007	-187.215	-21.0537	-15.4861	
61	0.508333	-151.17	-5.34602	-6.61208	-119.393	-21.8095	-16.1285	-97.8743	-42.3092	-26.3627	-94.6618	-72.0162	-28.5594	-137.84	-47.9239	-62.1575	-103.672	-51.466	-55.5354	-91.6001	-37.4054	-28.4552	-135.418	-66.0413	-60.1804	-104.502	-71.5847	-54.6816	-77.1762	-64.7785	-32.5309	-144.536	-82.9967	-43.7077	-113.611	-86.6347	-43.8149	-89.133	-82.1631	-24.0255	-147.493	-94.1887	-26.1547	-120.363	-93.3979	-23.7117	-102.36	-79.5861	-11.1865	-189	-61.1316	-19.7221	-200.629	-46.3857	6.02985	-189.284	-19.9504	-19.9357	
